<?xml version="1.0" encoding="UTF-8" standalone="no"?>
<!DOCTYPE svg PUBLIC "-//W3C//DTD SVG 1.1//EN"
 "http://www.w3.org/Graphics/SVG/1.1/DTD/svg11.dtd">
<!-- Generated by graphviz version 2.40.1 (20161225.0304)
 -->
<!-- Title: dependencies Pages: 1 -->
<svg width="504pt" height="211pt"
 viewBox="0.00 0.00 504.00 211.00" xmlns="http://www.w3.org/2000/svg" xmlns:xlink="http://www.w3.org/1999/xlink">
<g id="graph0" class="graph" transform="scale(1 1) rotate(0) translate(4 207)">
<title>dependencies</title>
<polygon fill="#ffffff" stroke="transparent" points="-4,4 -4,-207 500,-207 500,4 -4,4"/>
<text text-anchor="start" x="227.0091" y="-42.4" font-family="sans-serif" font-weight="bold" font-size="14.00" fill="#000000">Legend</text>
<polygon fill="#ffffb3" stroke="transparent" points="14,-10 14,-30 34,-30 34,-10 14,-10"/>
<text text-anchor="start" x="37.629" y="-15.4" font-family="sans-serif" font-size="14.00" fill="#000000"> &#160;Declarations</text>
<polygon fill="#8dd3c7" stroke="transparent" points="127,-10 127,-30 147,-30 147,-10 127,-10"/>
<text text-anchor="start" x="150.7251" y="-15.4" font-family="sans-serif" font-size="14.00" fill="#000000"> &#160;Module</text>
<polygon fill="#80b1d3" stroke="transparent" points="213,-10 213,-30 233,-30 233,-10 213,-10"/>
<text text-anchor="start" x="236.7812" y="-15.4" font-family="sans-serif" font-size="14.00" fill="#000000"> &#160;Bootstrap</text>
<polygon fill="#fdb462" stroke="transparent" points="310,-10 310,-30 330,-30 330,-10 310,-10"/>
<text text-anchor="start" x="333.6732" y="-15.4" font-family="sans-serif" font-size="14.00" fill="#000000"> &#160;Providers</text>
<polygon fill="#fb8072" stroke="transparent" points="406,-10 406,-30 426,-30 426,-10 406,-10"/>
<text text-anchor="start" x="429.7258" y="-15.4" font-family="sans-serif" font-size="14.00" fill="#000000"> &#160;Exports</text>
<g id="clust1" class="cluster">
<title>cluster_LobbyPageModule</title>
<polygon fill="none" stroke="#000000" stroke-dasharray="1,5" points="104,-70 104,-195 392,-195 392,-70 104,-70"/>
</g>
<g id="clust2" class="cluster">
<title>cluster_LobbyPageModule_declarations</title>
<polygon fill="none" stroke="#000000" points="112,-78 112,-130 384,-130 384,-78 112,-78"/>
</g>
<!-- LobbyPage -->
<g id="node1" class="node">
<title>LobbyPage</title>
<polygon fill="#ffffb3" stroke="#000000" points="375.7647,-122 296.2353,-122 296.2353,-86 375.7647,-86 375.7647,-122"/>
<text text-anchor="middle" x="336" y="-99.8" font-family="Times,serif" font-size="14.00" fill="#000000">LobbyPage</text>
</g>
<!-- LobbyPageModule -->
<g id="node3" class="node">
<title>LobbyPageModule</title>
<polygon fill="#8dd3c7" stroke="#000000" points="321.8146,-187 318.8146,-191 297.8146,-191 294.8146,-187 198.1854,-187 198.1854,-151 321.8146,-151 321.8146,-187"/>
<text text-anchor="middle" x="260" y="-164.8" font-family="Times,serif" font-size="14.00" fill="#000000">LobbyPageModule</text>
</g>
<!-- LobbyPage&#45;&gt;LobbyPageModule -->
<g id="edge1" class="edge">
<title>LobbyPage&#45;&gt;LobbyPageModule</title>
<path fill="none" stroke="#000000" d="M308.8875,-122.1061C308.8875,-122.1061 308.8875,-140.991 308.8875,-140.991"/>
<polygon fill="#000000" stroke="#000000" points="305.3875,-140.9909 308.8875,-150.991 312.3875,-140.991 305.3875,-140.9909"/>
</g>
<!-- QuestionItemComponent -->
<g id="node2" class="node">
<title>QuestionItemComponent</title>
<polygon fill="#ffffb3" stroke="#000000" points="277.5365,-122 120.4635,-122 120.4635,-86 277.5365,-86 277.5365,-122"/>
<text text-anchor="middle" x="199" y="-99.8" font-family="Times,serif" font-size="14.00" fill="#000000">QuestionItemComponent</text>
</g>
<!-- QuestionItemComponent&#45;&gt;LobbyPageModule -->
<g id="edge2" class="edge">
<title>QuestionItemComponent&#45;&gt;LobbyPageModule</title>
<path fill="none" stroke="#000000" d="M238.0554,-122.1061C238.0554,-122.1061 238.0554,-140.991 238.0554,-140.991"/>
<polygon fill="#000000" stroke="#000000" points="234.5555,-140.9909 238.0554,-150.991 241.5555,-140.991 234.5555,-140.9909"/>
</g>
</g>
</svg>
