<?xml version="1.0" encoding="UTF-8" standalone="no"?>
<!DOCTYPE svg PUBLIC "-//W3C//DTD SVG 1.1//EN"
 "http://www.w3.org/Graphics/SVG/1.1/DTD/svg11.dtd">
<!-- Generated by graphviz version 2.40.1 (20161225.0304)
 -->
<!-- Title: dependencies Pages: 1 -->
<svg width="504pt" height="211pt"
 viewBox="0.00 0.00 504.00 211.00" xmlns="http://www.w3.org/2000/svg" xmlns:xlink="http://www.w3.org/1999/xlink">
<g id="graph0" class="graph" transform="scale(1 1) rotate(0) translate(4 207)">
<title>dependencies</title>
<polygon fill="#ffffff" stroke="transparent" points="-4,4 -4,-207 500,-207 500,4 -4,4"/>
<text text-anchor="start" x="227.0091" y="-42.4" font-family="sans-serif" font-weight="bold" font-size="14.00" fill="#000000">Legend</text>
<polygon fill="#ffffb3" stroke="transparent" points="14,-10 14,-30 34,-30 34,-10 14,-10"/>
<text text-anchor="start" x="37.629" y="-15.4" font-family="sans-serif" font-size="14.00" fill="#000000"> &#160;Declarations</text>
<polygon fill="#8dd3c7" stroke="transparent" points="127,-10 127,-30 147,-30 147,-10 127,-10"/>
<text text-anchor="start" x="150.7251" y="-15.4" font-family="sans-serif" font-size="14.00" fill="#000000"> &#160;Module</text>
<polygon fill="#80b1d3" stroke="transparent" points="213,-10 213,-30 233,-30 233,-10 213,-10"/>
<text text-anchor="start" x="236.7812" y="-15.4" font-family="sans-serif" font-size="14.00" fill="#000000"> &#160;Bootstrap</text>
<polygon fill="#fdb462" stroke="transparent" points="310,-10 310,-30 330,-30 330,-10 310,-10"/>
<text text-anchor="start" x="333.6732" y="-15.4" font-family="sans-serif" font-size="14.00" fill="#000000"> &#160;Providers</text>
<polygon fill="#fb8072" stroke="transparent" points="406,-10 406,-30 426,-30 426,-10 406,-10"/>
<text text-anchor="start" x="429.7258" y="-15.4" font-family="sans-serif" font-size="14.00" fill="#000000"> &#160;Exports</text>
<g id="clust1" class="cluster">
<title>cluster_QuizPageModule</title>
<polygon fill="none" stroke="#000000" stroke-dasharray="1,5" points="122,-70 122,-195 374,-195 374,-70 122,-70"/>
</g>
<g id="clust2" class="cluster">
<title>cluster_QuizPageModule_declarations</title>
<polygon fill="none" stroke="#000000" points="130,-78 130,-130 366,-130 366,-78 130,-78"/>
</g>
<!-- QuestionComponent -->
<g id="node1" class="node">
<title>QuestionComponent</title>
<polygon fill="#ffffb3" stroke="#000000" points="357.8795,-122 226.1205,-122 226.1205,-86 357.8795,-86 357.8795,-122"/>
<text text-anchor="middle" x="292" y="-99.8" font-family="Times,serif" font-size="14.00" fill="#000000">QuestionComponent</text>
</g>
<!-- QuizPageModule -->
<g id="node3" class="node">
<title>QuizPageModule</title>
<polygon fill="#8dd3c7" stroke="#000000" points="295.9734,-187 292.9734,-191 271.9734,-191 268.9734,-187 182.0266,-187 182.0266,-151 295.9734,-151 295.9734,-187"/>
<text text-anchor="middle" x="239" y="-164.8" font-family="Times,serif" font-size="14.00" fill="#000000">QuizPageModule</text>
</g>
<!-- QuestionComponent&#45;&gt;QuizPageModule -->
<g id="edge1" class="edge">
<title>QuestionComponent&#45;&gt;QuizPageModule</title>
<path fill="none" stroke="#000000" d="M261.0235,-122.1061C261.0235,-122.1061 261.0235,-140.991 261.0235,-140.991"/>
<polygon fill="#000000" stroke="#000000" points="257.5236,-140.9909 261.0235,-150.991 264.5236,-140.991 257.5236,-140.9909"/>
</g>
<!-- QuizPage -->
<g id="node2" class="node">
<title>QuizPage</title>
<polygon fill="#ffffb3" stroke="#000000" points="208.4249,-122 137.5751,-122 137.5751,-86 208.4249,-86 208.4249,-122"/>
<text text-anchor="middle" x="173" y="-99.8" font-family="Times,serif" font-size="14.00" fill="#000000">QuizPage</text>
</g>
<!-- QuizPage&#45;&gt;QuizPageModule -->
<g id="edge2" class="edge">
<title>QuizPage&#45;&gt;QuizPageModule</title>
<path fill="none" stroke="#000000" d="M195.1126,-122.1061C195.1126,-122.1061 195.1126,-140.991 195.1126,-140.991"/>
<polygon fill="#000000" stroke="#000000" points="191.6126,-140.9909 195.1126,-150.991 198.6126,-140.991 191.6126,-140.9909"/>
</g>
</g>
</svg>
