<?xml version="1.0" encoding="UTF-8" standalone="no"?>
<!DOCTYPE svg PUBLIC "-//W3C//DTD SVG 1.1//EN"
 "http://www.w3.org/Graphics/SVG/1.1/DTD/svg11.dtd">
<!-- Generated by graphviz version 2.40.1 (20161225.0304)
 -->
<!-- Title: dependencies Pages: 1 -->
<svg width="2220pt" height="284pt"
 viewBox="0.00 0.00 2220.00 284.00" xmlns="http://www.w3.org/2000/svg" xmlns:xlink="http://www.w3.org/1999/xlink">
<g id="graph0" class="graph" transform="scale(1 1) rotate(0) translate(4 280)">
<title>dependencies</title>
<polygon fill="#ffffff" stroke="transparent" points="-4,4 -4,-280 2216,-280 2216,4 -4,4"/>
<text text-anchor="start" x="1085.0091" y="-42.4" font-family="sans-serif" font-weight="bold" font-size="14.00" fill="#000000">Legend</text>
<polygon fill="#ffffb3" stroke="transparent" points="872,-10 872,-30 892,-30 892,-10 872,-10"/>
<text text-anchor="start" x="895.629" y="-15.4" font-family="sans-serif" font-size="14.00" fill="#000000"> &#160;Declarations</text>
<polygon fill="#8dd3c7" stroke="transparent" points="985,-10 985,-30 1005,-30 1005,-10 985,-10"/>
<text text-anchor="start" x="1008.7251" y="-15.4" font-family="sans-serif" font-size="14.00" fill="#000000"> &#160;Module</text>
<polygon fill="#80b1d3" stroke="transparent" points="1071,-10 1071,-30 1091,-30 1091,-10 1071,-10"/>
<text text-anchor="start" x="1094.7812" y="-15.4" font-family="sans-serif" font-size="14.00" fill="#000000"> &#160;Bootstrap</text>
<polygon fill="#fdb462" stroke="transparent" points="1168,-10 1168,-30 1188,-30 1188,-10 1168,-10"/>
<text text-anchor="start" x="1191.6732" y="-15.4" font-family="sans-serif" font-size="14.00" fill="#000000"> &#160;Providers</text>
<polygon fill="#fb8072" stroke="transparent" points="1264,-10 1264,-30 1284,-30 1284,-10 1264,-10"/>
<text text-anchor="start" x="1287.7258" y="-15.4" font-family="sans-serif" font-size="14.00" fill="#000000"> &#160;Exports</text>
<g id="clust1" class="cluster">
<title>cluster_AppModule</title>
<polygon fill="none" stroke="#000000" stroke-dasharray="1,5" points="8,-70 8,-268 298,-268 298,-70 8,-70"/>
</g>
<g id="clust2" class="cluster">
<title>cluster_AppModule_declarations</title>
<polygon fill="none" stroke="#000000" points="168,-78 168,-130 290,-130 290,-78 168,-78"/>
</g>
<g id="clust4" class="cluster">
<title>cluster_AppModule_imports</title>
<polygon fill="none" stroke="#000000" points="16,-78 16,-130 160,-130 160,-78 16,-78"/>
</g>
<g id="clust6" class="cluster">
<title>cluster_AppModule_bootstrap</title>
<polygon fill="none" stroke="#000000" points="96,-208 96,-260 220,-260 220,-208 96,-208"/>
</g>
<g id="clust14" class="cluster">
<title>cluster_LobbyPageModule</title>
<polygon fill="none" stroke="#000000" stroke-dasharray="1,5" points="306,-70 306,-195 594,-195 594,-70 306,-70"/>
</g>
<g id="clust15" class="cluster">
<title>cluster_LobbyPageModule_declarations</title>
<polygon fill="none" stroke="#000000" points="314,-78 314,-130 586,-130 586,-78 314,-78"/>
</g>
<g id="clust22" class="cluster">
<title>cluster_LoginPageModule</title>
<polygon fill="none" stroke="#000000" stroke-dasharray="1,5" points="804,-70 804,-195 940,-195 940,-70 804,-70"/>
</g>
<g id="clust23" class="cluster">
<title>cluster_LoginPageModule_declarations</title>
<polygon fill="none" stroke="#000000" points="826,-78 826,-130 918,-130 918,-78 826,-78"/>
</g>
<g id="clust29" class="cluster">
<title>cluster_QuizPageModule</title>
<polygon fill="none" stroke="#000000" stroke-dasharray="1,5" points="948,-70 948,-195 1200,-195 1200,-70 948,-70"/>
</g>
<g id="clust30" class="cluster">
<title>cluster_QuizPageModule_declarations</title>
<polygon fill="none" stroke="#000000" points="956,-78 956,-130 1192,-130 1192,-78 956,-78"/>
</g>
<g id="clust37" class="cluster">
<title>cluster_SharedModule</title>
<polygon fill="none" stroke="#000000" stroke-dasharray="1,5" points="602,-143 602,-268 796,-268 796,-143 602,-143"/>
</g>
<g id="clust41" class="cluster">
<title>cluster_SharedModule_exports</title>
<polygon fill="none" stroke="#000000" points="610,-208 610,-260 788,-260 788,-208 610,-208"/>
</g>
<g id="clust44" class="cluster">
<title>cluster_Tab1PageModule</title>
<polygon fill="none" stroke="#000000" stroke-dasharray="1,5" points="1208,-70 1208,-195 1478,-195 1478,-70 1208,-70"/>
</g>
<g id="clust45" class="cluster">
<title>cluster_Tab1PageModule_declarations</title>
<polygon fill="none" stroke="#000000" points="1216,-78 1216,-130 1470,-130 1470,-78 1216,-78"/>
</g>
<g id="clust52" class="cluster">
<title>cluster_Tab2PageModule</title>
<polygon fill="none" stroke="#000000" stroke-dasharray="1,5" points="1486,-70 1486,-195 1770,-195 1770,-70 1486,-70"/>
</g>
<g id="clust53" class="cluster">
<title>cluster_Tab2PageModule_declarations</title>
<polygon fill="none" stroke="#000000" points="1494,-78 1494,-130 1762,-130 1762,-78 1494,-78"/>
</g>
<g id="clust60" class="cluster">
<title>cluster_Tab3PageModule</title>
<polygon fill="none" stroke="#000000" stroke-dasharray="1,5" points="1778,-70 1778,-195 1910,-195 1910,-70 1778,-70"/>
</g>
<g id="clust61" class="cluster">
<title>cluster_Tab3PageModule_declarations</title>
<polygon fill="none" stroke="#000000" points="1800,-78 1800,-130 1888,-130 1888,-78 1800,-78"/>
</g>
<g id="clust67" class="cluster">
<title>cluster_TabsPageModule</title>
<polygon fill="none" stroke="#000000" stroke-dasharray="1,5" points="1918,-70 1918,-195 2204,-195 2204,-70 1918,-70"/>
</g>
<g id="clust68" class="cluster">
<title>cluster_TabsPageModule_declarations</title>
<polygon fill="none" stroke="#000000" points="2110,-78 2110,-130 2196,-130 2196,-78 2110,-78"/>
</g>
<g id="clust70" class="cluster">
<title>cluster_TabsPageModule_imports</title>
<polygon fill="none" stroke="#000000" points="1926,-78 1926,-130 2102,-130 2102,-78 1926,-78"/>
</g>
<!-- AppComponent -->
<g id="node1" class="node">
<title>AppComponent</title>
<polygon fill="#ffffb3" stroke="#000000" points="281.9399,-122 176.0601,-122 176.0601,-86 281.9399,-86 281.9399,-122"/>
<text text-anchor="middle" x="229" y="-99.8" font-family="Times,serif" font-size="14.00" fill="#000000">AppComponent</text>
</g>
<!-- AppModule -->
<g id="node2" class="node">
<title>AppModule</title>
<polygon fill="#8dd3c7" stroke="#000000" points="199.6571,-187 196.6571,-191 175.6571,-191 172.6571,-187 116.3429,-187 116.3429,-151 199.6571,-151 199.6571,-187"/>
<text text-anchor="middle" x="158" y="-164.8" font-family="Times,serif" font-size="14.00" fill="#000000">AppModule</text>
</g>
<!-- AppComponent&#45;&gt;AppModule -->
<g id="edge1" class="edge">
<title>AppComponent&#45;&gt;AppModule</title>
<path fill="none" stroke="#000000" d="M188.0544,-122.1061C188.0544,-122.1061 188.0544,-140.991 188.0544,-140.991"/>
<polygon fill="#000000" stroke="#000000" points="184.5544,-140.9909 188.0544,-150.991 191.5544,-140.991 184.5544,-140.9909"/>
</g>
<!-- AppComponent  -->
<g id="node4" class="node">
<title>AppComponent </title>
<polygon fill="#80b1d3" stroke="#000000" points="212.439,-252 103.561,-252 103.561,-216 212.439,-216 212.439,-252"/>
<text text-anchor="middle" x="158" y="-229.8" font-family="Times,serif" font-size="14.00" fill="#000000">AppComponent </text>
</g>
<!-- AppModule&#45;&gt;AppComponent  -->
<g id="edge3" class="edge">
<title>AppModule&#45;&gt;AppComponent </title>
<path fill="none" stroke="#000000" stroke-dasharray="1,5" d="M158,-187.1061C158,-187.1061 158,-205.991 158,-205.991"/>
<polygon fill="#000000" stroke="#000000" points="154.5001,-205.9909 158,-215.991 161.5001,-205.991 154.5001,-205.9909"/>
</g>
<!-- AppRoutingModule -->
<g id="node3" class="node">
<title>AppRoutingModule</title>
<polygon fill="#8dd3c7" stroke="#000000" points="152.2744,-122 149.2744,-126 128.2744,-126 125.2744,-122 23.7256,-122 23.7256,-86 152.2744,-86 152.2744,-122"/>
<text text-anchor="middle" x="88" y="-99.8" font-family="Times,serif" font-size="14.00" fill="#000000">AppRoutingModule</text>
</g>
<!-- AppRoutingModule&#45;&gt;AppModule -->
<g id="edge2" class="edge">
<title>AppRoutingModule&#45;&gt;AppModule</title>
<path fill="none" stroke="#000000" d="M134.2795,-122.1061C134.2795,-122.1061 134.2795,-140.991 134.2795,-140.991"/>
<polygon fill="#000000" stroke="#000000" points="130.7795,-140.9909 134.2795,-150.991 137.7795,-140.991 130.7795,-140.9909"/>
</g>
<!-- LobbyPage -->
<g id="node5" class="node">
<title>LobbyPage</title>
<polygon fill="#ffffb3" stroke="#000000" points="401.7647,-122 322.2353,-122 322.2353,-86 401.7647,-86 401.7647,-122"/>
<text text-anchor="middle" x="362" y="-99.8" font-family="Times,serif" font-size="14.00" fill="#000000">LobbyPage</text>
</g>
<!-- LobbyPageModule -->
<g id="node7" class="node">
<title>LobbyPageModule</title>
<polygon fill="#8dd3c7" stroke="#000000" points="498.8146,-187 495.8146,-191 474.8146,-191 471.8146,-187 375.1854,-187 375.1854,-151 498.8146,-151 498.8146,-187"/>
<text text-anchor="middle" x="437" y="-164.8" font-family="Times,serif" font-size="14.00" fill="#000000">LobbyPageModule</text>
</g>
<!-- LobbyPage&#45;&gt;LobbyPageModule -->
<g id="edge4" class="edge">
<title>LobbyPage&#45;&gt;LobbyPageModule</title>
<path fill="none" stroke="#000000" d="M388.6126,-122.1061C388.6126,-122.1061 388.6126,-140.991 388.6126,-140.991"/>
<polygon fill="#000000" stroke="#000000" points="385.1126,-140.9909 388.6126,-150.991 392.1126,-140.991 385.1126,-140.9909"/>
</g>
<!-- QuestionItemComponent -->
<g id="node6" class="node">
<title>QuestionItemComponent</title>
<polygon fill="#ffffb3" stroke="#000000" points="577.5365,-122 420.4635,-122 420.4635,-86 577.5365,-86 577.5365,-122"/>
<text text-anchor="middle" x="499" y="-99.8" font-family="Times,serif" font-size="14.00" fill="#000000">QuestionItemComponent</text>
</g>
<!-- QuestionItemComponent&#45;&gt;LobbyPageModule -->
<g id="edge5" class="edge">
<title>QuestionItemComponent&#45;&gt;LobbyPageModule</title>
<path fill="none" stroke="#000000" d="M459.4446,-122.1061C459.4446,-122.1061 459.4446,-140.991 459.4446,-140.991"/>
<polygon fill="#000000" stroke="#000000" points="455.9447,-140.9909 459.4446,-150.991 462.9447,-140.991 455.9447,-140.9909"/>
</g>
<!-- SharedModule -->
<g id="node13" class="node">
<title>SharedModule</title>
<polygon fill="#8dd3c7" stroke="#000000" points="728.4231,-187 725.4231,-191 704.4231,-191 701.4231,-187 629.5769,-187 629.5769,-151 728.4231,-151 728.4231,-187"/>
<text text-anchor="middle" x="679" y="-164.8" font-family="Times,serif" font-size="14.00" fill="#000000">SharedModule</text>
</g>
<!-- QuestionItemComponent&#45;&gt;SharedModule -->
<g id="edge9" class="edge">
<title>QuestionItemComponent&#45;&gt;SharedModule</title>
<path fill="none" stroke="#000000" d="M538.2125,-122.1061C538.2125,-141.3391 538.2125,-169 538.2125,-169 538.2125,-169 619.7594,-169 619.7594,-169"/>
<polygon fill="#000000" stroke="#000000" points="619.7594,-172.5001 629.7594,-169 619.7593,-165.5001 619.7594,-172.5001"/>
</g>
<!-- LoginPage -->
<g id="node8" class="node">
<title>LoginPage</title>
<polygon fill="#ffffb3" stroke="#000000" points="910.1558,-122 833.8442,-122 833.8442,-86 910.1558,-86 910.1558,-122"/>
<text text-anchor="middle" x="872" y="-99.8" font-family="Times,serif" font-size="14.00" fill="#000000">LoginPage</text>
</g>
<!-- LoginPageModule -->
<g id="node9" class="node">
<title>LoginPageModule</title>
<polygon fill="#8dd3c7" stroke="#000000" points="932.205,-187 929.205,-191 908.205,-191 905.205,-187 811.795,-187 811.795,-151 932.205,-151 932.205,-187"/>
<text text-anchor="middle" x="872" y="-164.8" font-family="Times,serif" font-size="14.00" fill="#000000">LoginPageModule</text>
</g>
<!-- LoginPage&#45;&gt;LoginPageModule -->
<g id="edge6" class="edge">
<title>LoginPage&#45;&gt;LoginPageModule</title>
<path fill="none" stroke="#000000" d="M872,-122.1061C872,-122.1061 872,-140.991 872,-140.991"/>
<polygon fill="#000000" stroke="#000000" points="868.5001,-140.9909 872,-150.991 875.5001,-140.991 868.5001,-140.9909"/>
</g>
<!-- QuestionComponent -->
<g id="node10" class="node">
<title>QuestionComponent</title>
<polygon fill="#ffffb3" stroke="#000000" points="1183.8795,-122 1052.1205,-122 1052.1205,-86 1183.8795,-86 1183.8795,-122"/>
<text text-anchor="middle" x="1118" y="-99.8" font-family="Times,serif" font-size="14.00" fill="#000000">QuestionComponent</text>
</g>
<!-- QuizPageModule -->
<g id="node12" class="node">
<title>QuizPageModule</title>
<polygon fill="#8dd3c7" stroke="#000000" points="1121.9734,-187 1118.9734,-191 1097.9734,-191 1094.9734,-187 1008.0266,-187 1008.0266,-151 1121.9734,-151 1121.9734,-187"/>
<text text-anchor="middle" x="1065" y="-164.8" font-family="Times,serif" font-size="14.00" fill="#000000">QuizPageModule</text>
</g>
<!-- QuestionComponent&#45;&gt;QuizPageModule -->
<g id="edge7" class="edge">
<title>QuestionComponent&#45;&gt;QuizPageModule</title>
<path fill="none" stroke="#000000" d="M1087.0235,-122.1061C1087.0235,-122.1061 1087.0235,-140.991 1087.0235,-140.991"/>
<polygon fill="#000000" stroke="#000000" points="1083.5236,-140.9909 1087.0235,-150.991 1090.5236,-140.991 1083.5236,-140.9909"/>
</g>
<!-- QuizPage -->
<g id="node11" class="node">
<title>QuizPage</title>
<polygon fill="#ffffb3" stroke="#000000" points="1034.4249,-122 963.5751,-122 963.5751,-86 1034.4249,-86 1034.4249,-122"/>
<text text-anchor="middle" x="999" y="-99.8" font-family="Times,serif" font-size="14.00" fill="#000000">QuizPage</text>
</g>
<!-- QuizPage&#45;&gt;QuizPageModule -->
<g id="edge8" class="edge">
<title>QuizPage&#45;&gt;QuizPageModule</title>
<path fill="none" stroke="#000000" d="M1021.1126,-122.1061C1021.1126,-122.1061 1021.1126,-140.991 1021.1126,-140.991"/>
<polygon fill="#000000" stroke="#000000" points="1017.6126,-140.9909 1021.1126,-150.991 1024.6126,-140.991 1017.6126,-140.9909"/>
</g>
<!-- QuestionItemComponent  -->
<g id="node14" class="node">
<title>QuestionItemComponent </title>
<polygon fill="#fb8072" stroke="#000000" points="779.5358,-252 618.4642,-252 618.4642,-216 779.5358,-216 779.5358,-252"/>
<text text-anchor="middle" x="699" y="-229.8" font-family="Times,serif" font-size="14.00" fill="#000000">QuestionItemComponent </text>
</g>
<!-- SharedModule&#45;&gt;QuestionItemComponent  -->
<g id="edge10" class="edge">
<title>SharedModule&#45;&gt;QuestionItemComponent </title>
<path fill="none" stroke="#000000" stroke-dasharray="5,2" d="M679,-187.1061C679,-187.1061 679,-205.991 679,-205.991"/>
<polygon fill="#000000" stroke="#000000" points="675.5001,-205.9909 679,-215.991 682.5001,-205.991 675.5001,-205.9909"/>
</g>
<!-- LobbyFormComponent -->
<g id="node15" class="node">
<title>LobbyFormComponent</title>
<polygon fill="#ffffb3" stroke="#000000" points="1462.219,-122 1313.781,-122 1313.781,-86 1462.219,-86 1462.219,-122"/>
<text text-anchor="middle" x="1388" y="-99.8" font-family="Times,serif" font-size="14.00" fill="#000000">LobbyFormComponent</text>
</g>
<!-- Tab1PageModule -->
<g id="node17" class="node">
<title>Tab1PageModule</title>
<polygon fill="#8dd3c7" stroke="#000000" points="1388.5298,-187 1385.5298,-191 1364.5298,-191 1361.5298,-187 1273.4702,-187 1273.4702,-151 1388.5298,-151 1388.5298,-187"/>
<text text-anchor="middle" x="1331" y="-164.8" font-family="Times,serif" font-size="14.00" fill="#000000">Tab1PageModule</text>
</g>
<!-- LobbyFormComponent&#45;&gt;Tab1PageModule -->
<g id="edge11" class="edge">
<title>LobbyFormComponent&#45;&gt;Tab1PageModule</title>
<path fill="none" stroke="#000000" d="M1351.3275,-122.1061C1351.3275,-122.1061 1351.3275,-140.991 1351.3275,-140.991"/>
<polygon fill="#000000" stroke="#000000" points="1347.8276,-140.9909 1351.3275,-150.991 1354.8276,-140.991 1347.8276,-140.9909"/>
</g>
<!-- Tab1Page -->
<g id="node16" class="node">
<title>Tab1Page</title>
<polygon fill="#ffffb3" stroke="#000000" points="1295.979,-122 1224.021,-122 1224.021,-86 1295.979,-86 1295.979,-122"/>
<text text-anchor="middle" x="1260" y="-99.8" font-family="Times,serif" font-size="14.00" fill="#000000">Tab1Page</text>
</g>
<!-- Tab1Page&#45;&gt;Tab1PageModule -->
<g id="edge12" class="edge">
<title>Tab1Page&#45;&gt;Tab1PageModule</title>
<path fill="none" stroke="#000000" d="M1284.6125,-122.1061C1284.6125,-122.1061 1284.6125,-140.991 1284.6125,-140.991"/>
<polygon fill="#000000" stroke="#000000" points="1281.1126,-140.9909 1284.6125,-150.991 1288.1126,-140.991 1281.1126,-140.9909"/>
</g>
<!-- QuestionFormComponent -->
<g id="node18" class="node">
<title>QuestionFormComponent</title>
<polygon fill="#ffffb3" stroke="#000000" points="1754.2133,-122 1591.7867,-122 1591.7867,-86 1754.2133,-86 1754.2133,-122"/>
<text text-anchor="middle" x="1673" y="-99.8" font-family="Times,serif" font-size="14.00" fill="#000000">QuestionFormComponent</text>
</g>
<!-- Tab2PageModule -->
<g id="node20" class="node">
<title>Tab2PageModule</title>
<polygon fill="#8dd3c7" stroke="#000000" points="1669.5298,-187 1666.5298,-191 1645.5298,-191 1642.5298,-187 1554.4702,-187 1554.4702,-151 1669.5298,-151 1669.5298,-187"/>
<text text-anchor="middle" x="1612" y="-164.8" font-family="Times,serif" font-size="14.00" fill="#000000">Tab2PageModule</text>
</g>
<!-- QuestionFormComponent&#45;&gt;Tab2PageModule -->
<g id="edge13" class="edge">
<title>QuestionFormComponent&#45;&gt;Tab2PageModule</title>
<path fill="none" stroke="#000000" d="M1630.8289,-122.1061C1630.8289,-122.1061 1630.8289,-140.991 1630.8289,-140.991"/>
<polygon fill="#000000" stroke="#000000" points="1627.329,-140.9909 1630.8289,-150.991 1634.329,-140.991 1627.329,-140.9909"/>
</g>
<!-- Tab2Page -->
<g id="node19" class="node">
<title>Tab2Page</title>
<polygon fill="#ffffb3" stroke="#000000" points="1573.979,-122 1502.021,-122 1502.021,-86 1573.979,-86 1573.979,-122"/>
<text text-anchor="middle" x="1538" y="-99.8" font-family="Times,serif" font-size="14.00" fill="#000000">Tab2Page</text>
</g>
<!-- Tab2Page&#45;&gt;Tab2PageModule -->
<g id="edge14" class="edge">
<title>Tab2Page&#45;&gt;Tab2PageModule</title>
<path fill="none" stroke="#000000" d="M1564.1125,-122.1061C1564.1125,-122.1061 1564.1125,-140.991 1564.1125,-140.991"/>
<polygon fill="#000000" stroke="#000000" points="1560.6126,-140.9909 1564.1125,-150.991 1567.6126,-140.991 1560.6126,-140.9909"/>
</g>
<!-- Tab3Page -->
<g id="node21" class="node">
<title>Tab3Page</title>
<polygon fill="#ffffb3" stroke="#000000" points="1879.979,-122 1808.021,-122 1808.021,-86 1879.979,-86 1879.979,-122"/>
<text text-anchor="middle" x="1844" y="-99.8" font-family="Times,serif" font-size="14.00" fill="#000000">Tab3Page</text>
</g>
<!-- Tab3PageModule -->
<g id="node22" class="node">
<title>Tab3PageModule</title>
<polygon fill="#8dd3c7" stroke="#000000" points="1901.5298,-187 1898.5298,-191 1877.5298,-191 1874.5298,-187 1786.4702,-187 1786.4702,-151 1901.5298,-151 1901.5298,-187"/>
<text text-anchor="middle" x="1844" y="-164.8" font-family="Times,serif" font-size="14.00" fill="#000000">Tab3PageModule</text>
</g>
<!-- Tab3Page&#45;&gt;Tab3PageModule -->
<g id="edge15" class="edge">
<title>Tab3Page&#45;&gt;Tab3PageModule</title>
<path fill="none" stroke="#000000" d="M1844,-122.1061C1844,-122.1061 1844,-140.991 1844,-140.991"/>
<polygon fill="#000000" stroke="#000000" points="1840.5001,-140.9909 1844,-150.991 1847.5001,-140.991 1840.5001,-140.9909"/>
</g>
<!-- TabsPage -->
<g id="node23" class="node">
<title>TabsPage</title>
<polygon fill="#ffffb3" stroke="#000000" points="2188.4249,-122 2117.5751,-122 2117.5751,-86 2188.4249,-86 2188.4249,-122"/>
<text text-anchor="middle" x="2153" y="-99.8" font-family="Times,serif" font-size="14.00" fill="#000000">TabsPage</text>
</g>
<!-- TabsPageModule -->
<g id="node24" class="node">
<title>TabsPageModule</title>
<polygon fill="#8dd3c7" stroke="#000000" points="2132.9734,-187 2129.9734,-191 2108.9734,-191 2105.9734,-187 2019.0266,-187 2019.0266,-151 2132.9734,-151 2132.9734,-187"/>
<text text-anchor="middle" x="2076" y="-164.8" font-family="Times,serif" font-size="14.00" fill="#000000">TabsPageModule</text>
</g>
<!-- TabsPage&#45;&gt;TabsPageModule -->
<g id="edge16" class="edge">
<title>TabsPage&#45;&gt;TabsPageModule</title>
<path fill="none" stroke="#000000" d="M2125.3875,-122.1061C2125.3875,-122.1061 2125.3875,-140.991 2125.3875,-140.991"/>
<polygon fill="#000000" stroke="#000000" points="2121.8875,-140.9909 2125.3875,-150.991 2128.8875,-140.991 2121.8875,-140.9909"/>
</g>
<!-- TabsPageRoutingModule -->
<g id="node25" class="node">
<title>TabsPageRoutingModule</title>
<polygon fill="#8dd3c7" stroke="#000000" points="2093.5912,-122 2090.5912,-126 2069.5912,-126 2066.5912,-122 1934.4088,-122 1934.4088,-86 2093.5912,-86 2093.5912,-122"/>
<text text-anchor="middle" x="2014" y="-99.8" font-family="Times,serif" font-size="14.00" fill="#000000">TabsPageRoutingModule</text>
</g>
<!-- TabsPageRoutingModule&#45;&gt;TabsPageModule -->
<g id="edge17" class="edge">
<title>TabsPageRoutingModule&#45;&gt;TabsPageModule</title>
<path fill="none" stroke="#000000" d="M2056.2795,-122.1061C2056.2795,-122.1061 2056.2795,-140.991 2056.2795,-140.991"/>
<polygon fill="#000000" stroke="#000000" points="2052.7795,-140.9909 2056.2795,-150.991 2059.7795,-140.991 2052.7795,-140.9909"/>
</g>
</g>
</svg>
